<svg xmlns="http://www.w3.org/2000/svg" width="600" height="760" viewBox="0 0 600 760" role="img" aria-label="MENGZI 墨像（抽象档案图，非容貌）">
  <defs>
    <linearGradient id="paper-mencius" x1="0" y1="0" x2="0" y2="1">
      <stop offset="0" stop-color="#f3ede0"/><stop offset="1" stop-color="#e8e0cf"/>
    </linearGradient>
    <filter id="rough-mencius"><feTurbulence type="fractalNoise" baseFrequency="0.9" numOctaves="2" result="n"/><feDisplacementMap in="SourceGraphic" in2="n" scale="2.2"/></filter>
  </defs>
  <rect width="600" height="760" fill="url(#paper-mencius)"/>
  <circle cx="128.2" cy="394.6" r="0.62" fill="#3a352c" opacity="0.02"/>
  <circle cx="270.8" cy="597.4" r="0.92" fill="#3a352c" opacity="0.05"/>
  <circle cx="21.4" cy="21.0" r="0.84" fill="#3a352c" opacity="0.07"/>
  <circle cx="355.3" cy="206.4" r="1.29" fill="#3a352c" opacity="0.07"/>
  <circle cx="88.2" cy="363.2" r="1.23" fill="#3a352c" opacity="0.05"/>
  <circle cx="319.1" cy="185.6" r="1.09" fill="#3a352c" opacity="0.02"/>
  <circle cx="377.8" cy="354.7" r="0.85" fill="#3a352c" opacity="0.05"/>
  <circle cx="414.6" cy="188.6" r="1.03" fill="#3a352c" opacity="0.03"/>
  <circle cx="442.4" cy="362.2" r="0.47" fill="#3a352c" opacity="0.02"/>
  <circle cx="391.5" cy="327.8" r="1.29" fill="#3a352c" opacity="0.04"/>
  <circle cx="287.9" cy="310.1" r="1.26" fill="#3a352c" opacity="0.06"/>
  <circle cx="405.6" cy="21.1" r="0.47" fill="#3a352c" opacity="0.03"/>
  <circle cx="159.3" cy="373.6" r="0.88" fill="#3a352c" opacity="0.07"/>
  <circle cx="452.8" cy="320.2" r="0.88" fill="#3a352c" opacity="0.02"/>
  <circle cx="162.2" cy="730.2" r="1.22" fill="#3a352c" opacity="0.04"/>
  <circle cx="173.1" cy="335.6" r="0.84" fill="#3a352c" opacity="0.04"/>
  <circle cx="54.9" cy="153.0" r="0.48" fill="#3a352c" opacity="0.04"/>
  <circle cx="280.6" cy="652.7" r="0.77" fill="#3a352c" opacity="0.06"/>
  <circle cx="579.5" cy="378.1" r="0.63" fill="#3a352c" opacity="0.04"/>
  <circle cx="58.4" cy="674.0" r="0.90" fill="#3a352c" opacity="0.03"/>
  <circle cx="517.5" cy="267.3" r="1.27" fill="#3a352c" opacity="0.07"/>
  <circle cx="524.8" cy="540.4" r="1.15" fill="#3a352c" opacity="0.03"/>
  <circle cx="574.0" cy="617.5" r="0.70" fill="#3a352c" opacity="0.05"/>
  <circle cx="534.2" cy="206.4" r="1.08" fill="#3a352c" opacity="0.05"/>
  <circle cx="394.7" cy="201.0" r="1.05" fill="#3a352c" opacity="0.06"/>
  <circle cx="63.9" cy="468.1" r="0.81" fill="#3a352c" opacity="0.07"/>
  <circle cx="139.7" cy="582.3" r="1.01" fill="#3a352c" opacity="0.03"/>
  <circle cx="94.6" cy="168.6" r="0.71" fill="#3a352c" opacity="0.07"/>
  <circle cx="101.8" cy="157.2" r="1.21" fill="#3a352c" opacity="0.06"/>
  <circle cx="565.9" cy="727.8" r="0.45" fill="#3a352c" opacity="0.05"/>
  <circle cx="116.8" cy="426.3" r="1.24" fill="#3a352c" opacity="0.05"/>
  <circle cx="456.2" cy="504.4" r="1.22" fill="#3a352c" opacity="0.04"/>
  <circle cx="383.2" cy="627.7" r="1.04" fill="#3a352c" opacity="0.05"/>
  <circle cx="544.7" cy="221.3" r="1.18" fill="#3a352c" opacity="0.05"/>
  <circle cx="101.1" cy="389.5" r="0.92" fill="#3a352c" opacity="0.07"/>
  <circle cx="106.6" cy="153.9" r="0.66" fill="#3a352c" opacity="0.05"/>
  <circle cx="56.3" cy="181.4" r="0.44" fill="#3a352c" opacity="0.06"/>
  <circle cx="570.8" cy="168.6" r="0.44" fill="#3a352c" opacity="0.07"/>
  <circle cx="58.2" cy="16.0" r="1.25" fill="#3a352c" opacity="0.03"/>
  <circle cx="459.8" cy="384.1" r="0.46" fill="#3a352c" opacity="0.05"/>
  <circle cx="471.1" cy="708.3" r="0.72" fill="#3a352c" opacity="0.07"/>
  <circle cx="227.0" cy="370.7" r="0.87" fill="#3a352c" opacity="0.05"/>
  <circle cx="581.7" cy="689.2" r="0.87" fill="#3a352c" opacity="0.03"/>
  <circle cx="116.4" cy="89.4" r="0.53" fill="#3a352c" opacity="0.04"/>
  <circle cx="158.1" cy="128.8" r="1.13" fill="#3a352c" opacity="0.05"/>
  <circle cx="224.1" cy="144.6" r="0.95" fill="#3a352c" opacity="0.06"/>
  <circle cx="93.5" cy="296.7" r="0.98" fill="#3a352c" opacity="0.06"/>
  <circle cx="416.7" cy="598.4" r="0.81" fill="#3a352c" opacity="0.04"/>
  <circle cx="75.1" cy="319.1" r="0.71" fill="#3a352c" opacity="0.04"/>
  <circle cx="542.7" cy="648.4" r="1.24" fill="#3a352c" opacity="0.05"/>
  <circle cx="349.6" cy="559.6" r="0.48" fill="#3a352c" opacity="0.05"/>
  <circle cx="155.7" cy="630.2" r="0.71" fill="#3a352c" opacity="0.03"/>
  <circle cx="483.5" cy="140.6" r="0.57" fill="#3a352c" opacity="0.06"/>
  <circle cx="241.0" cy="338.6" r="1.27" fill="#3a352c" opacity="0.06"/>
  <circle cx="376.2" cy="373.9" r="0.42" fill="#3a352c" opacity="0.06"/>
  <circle cx="482.8" cy="55.3" r="1.07" fill="#3a352c" opacity="0.05"/>
  <circle cx="310.1" cy="609.8" r="0.86" fill="#3a352c" opacity="0.06"/>
  <circle cx="127.5" cy="406.6" r="1.00" fill="#3a352c" opacity="0.05"/>
  <circle cx="283.7" cy="737.9" r="0.50" fill="#3a352c" opacity="0.07"/>
  <circle cx="278.2" cy="159.6" r="0.91" fill="#3a352c" opacity="0.04"/>
  <circle cx="225.6" cy="246.5" r="0.48" fill="#3a352c" opacity="0.05"/>
  <circle cx="86.7" cy="689.8" r="1.29" fill="#3a352c" opacity="0.04"/>
  <circle cx="95.9" cy="522.3" r="0.63" fill="#3a352c" opacity="0.04"/>
  <circle cx="393.0" cy="62.1" r="0.83" fill="#3a352c" opacity="0.06"/>
  <circle cx="191.0" cy="603.1" r="1.09" fill="#3a352c" opacity="0.02"/>
  <circle cx="518.9" cy="387.7" r="0.97" fill="#3a352c" opacity="0.04"/>
  <circle cx="9.6" cy="646.0" r="1.27" fill="#3a352c" opacity="0.04"/>
  <circle cx="50.8" cy="717.8" r="1.19" fill="#3a352c" opacity="0.07"/>
  <circle cx="11.0" cy="138.7" r="0.97" fill="#3a352c" opacity="0.06"/>
  <circle cx="396.4" cy="122.6" r="1.17" fill="#3a352c" opacity="0.02"/>
  <circle cx="353.8" cy="619.9" r="1.02" fill="#3a352c" opacity="0.02"/>
  <circle cx="554.0" cy="185.4" r="0.94" fill="#3a352c" opacity="0.02"/>
  <circle cx="71.3" cy="548.8" r="1.01" fill="#3a352c" opacity="0.05"/>
  <circle cx="518.9" cy="4.9" r="1.00" fill="#3a352c" opacity="0.04"/>
  <circle cx="525.2" cy="739.1" r="1.14" fill="#3a352c" opacity="0.04"/>
  <circle cx="381.0" cy="276.6" r="0.40" fill="#3a352c" opacity="0.03"/>
  <circle cx="485.7" cy="161.8" r="1.19" fill="#3a352c" opacity="0.05"/>
  <circle cx="421.9" cy="526.7" r="1.06" fill="#3a352c" opacity="0.06"/>
  <circle cx="84.8" cy="364.1" r="1.07" fill="#3a352c" opacity="0.04"/>
  <circle cx="18.2" cy="708.1" r="0.67" fill="#3a352c" opacity="0.07"/>
  <circle cx="169.7" cy="498.0" r="0.67" fill="#3a352c" opacity="0.07"/>
  <circle cx="266.8" cy="76.0" r="0.60" fill="#3a352c" opacity="0.06"/>
  <circle cx="314.3" cy="320.8" r="0.92" fill="#3a352c" opacity="0.02"/>
  <circle cx="269.9" cy="10.7" r="0.43" fill="#3a352c" opacity="0.04"/>
  <circle cx="534.6" cy="366.1" r="0.94" fill="#3a352c" opacity="0.05"/>
  <circle cx="319.6" cy="202.2" r="0.95" fill="#3a352c" opacity="0.07"/>
  <circle cx="5.2" cy="264.2" r="0.99" fill="#3a352c" opacity="0.07"/>
  <circle cx="75.8" cy="729.0" r="0.95" fill="#3a352c" opacity="0.03"/>
  <circle cx="585.4" cy="400.2" r="1.07" fill="#3a352c" opacity="0.05"/>
  <circle cx="380.1" cy="0.7" r="0.47" fill="#3a352c" opacity="0.05"/>
  <circle cx="456.3" cy="586.8" r="0.49" fill="#3a352c" opacity="0.03"/>
  <circle cx="525.9" cy="500.7" r="1.25" fill="#3a352c" opacity="0.04"/>
  <circle cx="403.5" cy="708.5" r="0.74" fill="#3a352c" opacity="0.05"/>
  <circle cx="270.3" cy="745.1" r="1.26" fill="#3a352c" opacity="0.07"/>
  <circle cx="471.1" cy="531.4" r="1.25" fill="#3a352c" opacity="0.02"/>
  <circle cx="69.4" cy="153.1" r="0.41" fill="#3a352c" opacity="0.04"/>
  <circle cx="173.7" cy="98.9" r="1.03" fill="#3a352c" opacity="0.03"/>
  <circle cx="591.8" cy="668.6" r="1.21" fill="#3a352c" opacity="0.05"/>
  <circle cx="186.2" cy="414.2" r="0.75" fill="#3a352c" opacity="0.03"/>
  <circle cx="41.4" cy="637.3" r="0.79" fill="#3a352c" opacity="0.05"/>
  <circle cx="77.9" cy="14.2" r="0.69" fill="#3a352c" opacity="0.06"/>
  <circle cx="248.9" cy="668.2" r="1.07" fill="#3a352c" opacity="0.03"/>
  <circle cx="90.6" cy="170.7" r="1.13" fill="#3a352c" opacity="0.06"/>
  <circle cx="538.1" cy="236.1" r="0.60" fill="#3a352c" opacity="0.02"/>
  <circle cx="461.6" cy="469.3" r="1.26" fill="#3a352c" opacity="0.04"/>
  <circle cx="378.1" cy="698.3" r="0.67" fill="#3a352c" opacity="0.04"/>
  <circle cx="568.7" cy="473.1" r="0.45" fill="#3a352c" opacity="0.06"/>
  <circle cx="457.4" cy="193.9" r="1.13" fill="#3a352c" opacity="0.03"/>
  <circle cx="359.5" cy="494.2" r="0.71" fill="#3a352c" opacity="0.03"/>
  <circle cx="171.7" cy="469.0" r="1.27" fill="#3a352c" opacity="0.03"/>
  <circle cx="72.9" cy="671.6" r="1.03" fill="#3a352c" opacity="0.02"/>
  <circle cx="368.1" cy="645.5" r="0.71" fill="#3a352c" opacity="0.05"/>
  <circle cx="312.2" cy="109.6" r="0.68" fill="#3a352c" opacity="0.06"/>
  <circle cx="218.3" cy="693.8" r="0.62" fill="#3a352c" opacity="0.04"/>
  <circle cx="424.3" cy="573.6" r="0.88" fill="#3a352c" opacity="0.05"/>
  <circle cx="138.8" cy="210.7" r="0.72" fill="#3a352c" opacity="0.07"/>
  <circle cx="19.4" cy="269.0" r="1.08" fill="#3a352c" opacity="0.07"/>
  <circle cx="424.9" cy="68.0" r="1.03" fill="#3a352c" opacity="0.07"/>
  <circle cx="553.3" cy="693.6" r="0.59" fill="#3a352c" opacity="0.05"/>
  <circle cx="535.6" cy="120.0" r="0.79" fill="#3a352c" opacity="0.07"/>
  <circle cx="8.7" cy="619.3" r="0.76" fill="#3a352c" opacity="0.07"/>
  <circle cx="429.1" cy="445.2" r="0.94" fill="#3a352c" opacity="0.07"/>
  <circle cx="117.6" cy="695.8" r="0.74" fill="#3a352c" opacity="0.06"/>
  <circle cx="474.2" cy="16.9" r="0.96" fill="#3a352c" opacity="0.03"/>
  <circle cx="315.9" cy="303.7" r="0.51" fill="#3a352c" opacity="0.04"/>
  <circle cx="18.5" cy="679.3" r="1.20" fill="#3a352c" opacity="0.04"/>
  <circle cx="300.0" cy="403.1" r="0.89" fill="#3a352c" opacity="0.05"/>
  <circle cx="592.0" cy="120.8" r="0.57" fill="#3a352c" opacity="0.06"/>
  <circle cx="553.7" cy="645.5" r="1.16" fill="#3a352c" opacity="0.03"/>
  <circle cx="219.4" cy="409.4" r="1.09" fill="#3a352c" opacity="0.02"/>
  <circle cx="540.3" cy="625.7" r="0.46" fill="#3a352c" opacity="0.05"/>
  <circle cx="10.6" cy="100.5" r="0.98" fill="#3a352c" opacity="0.02"/>
  <circle cx="516.3" cy="107.5" r="0.54" fill="#3a352c" opacity="0.04"/>
  <circle cx="577.7" cy="64.4" r="1.15" fill="#3a352c" opacity="0.06"/>
  <circle cx="450.5" cy="138.6" r="0.40" fill="#3a352c" opacity="0.06"/>
  <circle cx="379.8" cy="38.8" r="0.43" fill="#3a352c" opacity="0.04"/>
  <circle cx="227.3" cy="617.0" r="0.54" fill="#3a352c" opacity="0.04"/>
  <circle cx="396.5" cy="659.1" r="0.98" fill="#3a352c" opacity="0.03"/>
  <circle cx="196.6" cy="620.0" r="0.77" fill="#3a352c" opacity="0.03"/>
  <circle cx="255.0" cy="730.5" r="0.60" fill="#3a352c" opacity="0.06"/>
  <circle cx="488.3" cy="642.0" r="0.44" fill="#3a352c" opacity="0.05"/>
  <circle cx="117.2" cy="710.9" r="1.13" fill="#3a352c" opacity="0.05"/>
  <circle cx="347.5" cy="581.8" r="1.02" fill="#3a352c" opacity="0.04"/>
  <circle cx="57.9" cy="720.5" r="0.78" fill="#3a352c" opacity="0.05"/>
  <circle cx="232.0" cy="244.8" r="0.75" fill="#3a352c" opacity="0.04"/>
  <circle cx="479.6" cy="326.5" r="0.78" fill="#3a352c" opacity="0.05"/>
  <circle cx="236.9" cy="564.4" r="0.73" fill="#3a352c" opacity="0.04"/>
  <circle cx="364.2" cy="695.5" r="0.95" fill="#3a352c" opacity="0.07"/>
  <circle cx="282.0" cy="510.3" r="1.15" fill="#3a352c" opacity="0.02"/>
  <circle cx="101.5" cy="551.6" r="1.12" fill="#3a352c" opacity="0.02"/>
  <circle cx="317.6" cy="343.8" r="1.06" fill="#3a352c" opacity="0.06"/>
  <circle cx="473.0" cy="128.4" r="0.73" fill="#3a352c" opacity="0.04"/>
  <circle cx="32.2" cy="590.7" r="0.83" fill="#3a352c" opacity="0.04"/>
  <circle cx="246.2" cy="615.2" r="1.13" fill="#3a352c" opacity="0.03"/>
  <circle cx="458.0" cy="277.5" r="0.65" fill="#3a352c" opacity="0.07"/>
  <circle cx="267.0" cy="54.0" r="0.70" fill="#3a352c" opacity="0.06"/>
  <circle cx="69.8" cy="54.3" r="1.29" fill="#3a352c" opacity="0.07"/>
  <circle cx="403.1" cy="673.1" r="0.62" fill="#3a352c" opacity="0.05"/>
  <circle cx="446.0" cy="266.5" r="0.70" fill="#3a352c" opacity="0.04"/>
  <circle cx="209.7" cy="58.3" r="0.98" fill="#3a352c" opacity="0.03"/>
  <circle cx="566.2" cy="117.9" r="1.12" fill="#3a352c" opacity="0.07"/>
  <circle cx="155.7" cy="587.0" r="0.66" fill="#3a352c" opacity="0.04"/>
  <circle cx="205.2" cy="672.7" r="1.17" fill="#3a352c" opacity="0.04"/>
  <circle cx="347.2" cy="201.6" r="1.07" fill="#3a352c" opacity="0.07"/>
  <circle cx="314.4" cy="83.7" r="1.15" fill="#3a352c" opacity="0.07"/>
  <circle cx="180.3" cy="543.9" r="0.78" fill="#3a352c" opacity="0.05"/>
  <circle cx="504.1" cy="563.5" r="1.18" fill="#3a352c" opacity="0.02"/>
  <circle cx="131.9" cy="345.4" r="0.67" fill="#3a352c" opacity="0.05"/>
  <circle cx="210.6" cy="744.8" r="1.01" fill="#3a352c" opacity="0.03"/>
  <circle cx="138.5" cy="641.2" r="0.68" fill="#3a352c" opacity="0.05"/>
  <circle cx="81.9" cy="598.8" r="0.73" fill="#3a352c" opacity="0.07"/>
  <circle cx="324.4" cy="616.5" r="0.79" fill="#3a352c" opacity="0.03"/>
  <circle cx="321.0" cy="196.7" r="1.15" fill="#3a352c" opacity="0.06"/>
  <circle cx="467.6" cy="584.7" r="0.67" fill="#3a352c" opacity="0.04"/>
  <circle cx="475.5" cy="729.5" r="1.11" fill="#3a352c" opacity="0.05"/>
  <circle cx="556.9" cy="83.3" r="0.63" fill="#3a352c" opacity="0.02"/>
  <circle cx="128.0" cy="297.0" r="0.41" fill="#3a352c" opacity="0.03"/>
  <circle cx="267.9" cy="250.5" r="0.95" fill="#3a352c" opacity="0.06"/>
  <circle cx="257.3" cy="14.1" r="1.18" fill="#3a352c" opacity="0.05"/>
  <circle cx="80.1" cy="86.4" r="0.62" fill="#3a352c" opacity="0.04"/>
  <circle cx="203.5" cy="22.7" r="1.10" fill="#3a352c" opacity="0.03"/>
  <circle cx="555.2" cy="529.4" r="1.14" fill="#3a352c" opacity="0.02"/>
  <circle cx="521.2" cy="242.7" r="1.29" fill="#3a352c" opacity="0.03"/>
  <circle cx="143.6" cy="516.7" r="0.62" fill="#3a352c" opacity="0.06"/>
  <circle cx="182.4" cy="541.9" r="0.43" fill="#3a352c" opacity="0.02"/>
  <circle cx="259.2" cy="153.7" r="0.92" fill="#3a352c" opacity="0.07"/>
  <circle cx="332.5" cy="244.9" r="0.81" fill="#3a352c" opacity="0.07"/>
  <circle cx="18.3" cy="590.0" r="1.25" fill="#3a352c" opacity="0.03"/>
  <circle cx="193.9" cy="118.0" r="0.75" fill="#3a352c" opacity="0.03"/>
  <circle cx="18.0" cy="150.9" r="0.40" fill="#3a352c" opacity="0.04"/>
  <circle cx="138.4" cy="219.5" r="0.87" fill="#3a352c" opacity="0.03"/>
  <circle cx="215.0" cy="325.9" r="1.10" fill="#3a352c" opacity="0.06"/>
  <circle cx="552.1" cy="603.5" r="1.14" fill="#3a352c" opacity="0.04"/>
  <circle cx="49.8" cy="644.3" r="0.52" fill="#3a352c" opacity="0.06"/>
  <circle cx="384.3" cy="403.3" r="1.23" fill="#3a352c" opacity="0.06"/>
  <circle cx="256.7" cy="432.0" r="0.54" fill="#3a352c" opacity="0.04"/>
  <circle cx="309.5" cy="48.5" r="1.28" fill="#3a352c" opacity="0.03"/>
  <circle cx="114.4" cy="576.4" r="0.54" fill="#3a352c" opacity="0.03"/>
  <circle cx="520.4" cy="752.8" r="1.03" fill="#3a352c" opacity="0.05"/>
  <circle cx="92.6" cy="389.7" r="0.63" fill="#3a352c" opacity="0.03"/>
  <circle cx="129.5" cy="512.1" r="0.79" fill="#3a352c" opacity="0.04"/>
  <circle cx="298.4" cy="611.6" r="0.97" fill="#3a352c" opacity="0.04"/>
  <circle cx="179.0" cy="620.7" r="1.22" fill="#3a352c" opacity="0.02"/>
  <circle cx="413.2" cy="384.5" r="0.77" fill="#3a352c" opacity="0.06"/>
  <circle cx="303.4" cy="141.8" r="0.87" fill="#3a352c" opacity="0.05"/>
  <circle cx="490.9" cy="672.2" r="1.10" fill="#3a352c" opacity="0.02"/>
  <circle cx="341.3" cy="629.7" r="0.81" fill="#3a352c" opacity="0.03"/>
  <circle cx="93.9" cy="453.7" r="0.68" fill="#3a352c" opacity="0.05"/>
  <circle cx="444.5" cy="484.4" r="0.46" fill="#3a352c" opacity="0.03"/>
  <circle cx="208.1" cy="112.6" r="0.42" fill="#3a352c" opacity="0.02"/>
  <circle cx="330.8" cy="18.3" r="0.72" fill="#3a352c" opacity="0.05"/>
  <circle cx="197.6" cy="10.3" r="1.19" fill="#3a352c" opacity="0.04"/>
  <circle cx="205.2" cy="430.0" r="1.12" fill="#3a352c" opacity="0.06"/>
  <circle cx="165.7" cy="113.2" r="1.02" fill="#3a352c" opacity="0.04"/>
  <circle cx="245.2" cy="317.8" r="0.60" fill="#3a352c" opacity="0.04"/>
  <circle cx="503.0" cy="701.1" r="0.66" fill="#3a352c" opacity="0.06"/>
  <circle cx="35.0" cy="248.2" r="0.75" fill="#3a352c" opacity="0.06"/>
  <circle cx="176.9" cy="416.9" r="0.85" fill="#3a352c" opacity="0.03"/>
  <circle cx="264.6" cy="440.0" r="0.85" fill="#3a352c" opacity="0.06"/>
  <circle cx="569.2" cy="620.3" r="1.29" fill="#3a352c" opacity="0.05"/>
  <circle cx="163.8" cy="427.7" r="1.10" fill="#3a352c" opacity="0.04"/>
  <circle cx="92.5" cy="178.6" r="0.56" fill="#3a352c" opacity="0.04"/>
  <circle cx="82.6" cy="642.1" r="1.19" fill="#3a352c" opacity="0.05"/>
  <circle cx="288.8" cy="483.5" r="0.79" fill="#3a352c" opacity="0.04"/>
  <circle cx="588.6" cy="190.0" r="0.78" fill="#3a352c" opacity="0.05"/>
  <circle cx="433.9" cy="572.1" r="0.94" fill="#3a352c" opacity="0.05"/>
  <circle cx="522.1" cy="276.6" r="1.29" fill="#3a352c" opacity="0.04"/>
  <circle cx="206.3" cy="672.3" r="1.14" fill="#3a352c" opacity="0.03"/>
  <circle cx="63.1" cy="618.0" r="0.49" fill="#3a352c" opacity="0.06"/>
  <circle cx="514.5" cy="261.6" r="0.70" fill="#3a352c" opacity="0.06"/>
  <circle cx="251.9" cy="545.5" r="0.56" fill="#3a352c" opacity="0.05"/>
  <circle cx="459.0" cy="106.7" r="0.82" fill="#3a352c" opacity="0.04"/>
  <circle cx="126.0" cy="539.9" r="1.08" fill="#3a352c" opacity="0.03"/>
  <circle cx="45.7" cy="46.1" r="0.61" fill="#3a352c" opacity="0.07"/>
  <circle cx="367.6" cy="180.4" r="1.25" fill="#3a352c" opacity="0.03"/>
  <circle cx="448.4" cy="471.3" r="1.06" fill="#3a352c" opacity="0.03"/>
  <circle cx="128.3" cy="33.1" r="1.10" fill="#3a352c" opacity="0.03"/>
  <circle cx="51.9" cy="324.1" r="1.13" fill="#3a352c" opacity="0.02"/>
  <circle cx="415.9" cy="705.7" r="0.45" fill="#3a352c" opacity="0.04"/>
  <circle cx="145.3" cy="499.0" r="0.45" fill="#3a352c" opacity="0.05"/>
  <circle cx="52.9" cy="444.1" r="1.18" fill="#3a352c" opacity="0.04"/>
  <circle cx="111.0" cy="307.5" r="0.56" fill="#3a352c" opacity="0.05"/>
  <circle cx="376.2" cy="112.6" r="0.64" fill="#3a352c" opacity="0.03"/>
  <circle cx="67.1" cy="454.4" r="0.74" fill="#3a352c" opacity="0.02"/>
  <circle cx="451.4" cy="612.4" r="0.47" fill="#3a352c" opacity="0.05"/>
  <circle cx="59.5" cy="396.5" r="0.83" fill="#3a352c" opacity="0.02"/>
  <circle cx="518.8" cy="754.0" r="1.22" fill="#3a352c" opacity="0.02"/>
  <circle cx="154.2" cy="188.2" r="0.41" fill="#3a352c" opacity="0.06"/>
  <circle cx="280.7" cy="266.1" r="1.26" fill="#3a352c" opacity="0.06"/>
  <circle cx="375.5" cy="471.0" r="1.14" fill="#3a352c" opacity="0.05"/>
  <circle cx="429.4" cy="325.2" r="0.46" fill="#3a352c" opacity="0.06"/>
  <circle cx="94.0" cy="690.4" r="0.71" fill="#3a352c" opacity="0.03"/>
  <circle cx="599.2" cy="692.1" r="0.98" fill="#3a352c" opacity="0.04"/>
  <circle cx="551.2" cy="133.4" r="0.54" fill="#3a352c" opacity="0.05"/>
  <circle cx="589.5" cy="60.1" r="0.64" fill="#3a352c" opacity="0.02"/>
  <circle cx="379.6" cy="224.7" r="1.29" fill="#3a352c" opacity="0.05"/>
  <circle cx="286.2" cy="434.0" r="0.62" fill="#3a352c" opacity="0.02"/>
  <circle cx="599.5" cy="19.0" r="0.78" fill="#3a352c" opacity="0.05"/>
  <circle cx="208.2" cy="287.8" r="1.21" fill="#3a352c" opacity="0.04"/>
  <circle cx="323.2" cy="230.3" r="1.04" fill="#3a352c" opacity="0.06"/>
  <g filter="url(#rough-mencius)">
    <path d="M459.8,287.9 L464.0,306.2 L467.5,324.9 L469.3,344.1 L467.9,363.4 L462.6,382.1 L453.8,399.4 L443.0,415.2 L431.5,430.1 L419.7,444.8 L407.2,459.1 L393.1,472.3 L376.9,483.0 L358.8,490.1 L339.8,493.8 L320.7,495.0 L301.9,495.2 L283.1,495.1 L264.1,494.2 L245.0,491.1 L226.7,484.7 L210.0,474.7 L195.5,461.9 L182.8,447.7 L170.9,433.1 L159.3,418.3 L148.2,402.7 L139.0,385.7 L132.9,367.3 L130.7,348.0 L131.9,328.7 L135.2,309.9 L139.3,291.6 L143.7,273.3 L149.2,254.9 L156.9,237.2 L167.8,221.2 L181.8,207.7 L197.8,196.9 L214.6,187.9 L231.5,179.6 L248.6,171.7 L266.4,164.7 L285.2,160.0 L304.6,158.9 L323.7,161.8 L342.1,167.8 L359.5,175.4 L376.5,183.4 L393.3,191.9 L409.8,201.7 L425.1,213.7 L437.7,228.4 L447.1,245.4 L453.6,263.5 L458.4,281.9 L462.6,300.2 L466.5,318.7 L469.0,337.7 L468.8,357.1 L464.7,376.1" fill="none" stroke="#1c1d1a" stroke-width="16" stroke-linecap="round" opacity="0.82"/>
    <path d="M453.2,292.9 L457.1,310.3 L460.3,328.1 L461.7,346.4 L459.9,364.7 L454.2,382.3 L445.5,398.4 L435.0,413.3 L424.0,427.3 L412.8,441.2 L400.9,454.8 L387.3,467.2 L371.7,477.0 L354.4,483.4 L336.3,486.5 L318.2,487.5 L300.3,487.6 L282.5,487.5 L264.4,486.6 L246.3,483.6 L228.9,477.4 L213.2,467.7 L199.6,455.4 L187.7,441.8 L176.5,427.8 L165.4,413.8 L154.9,399.0 L146.0,382.9 L140.3,365.4 L138.3,347.1 L139.6,328.8 L142.8,311.0 L146.7,293.6 L150.8,276.2 L155.8,258.7 L163.1,241.8 L173.3,226.5 L186.5,213.7 L201.7,203.4 L217.6,194.8 L233.7,187.0 L249.9,179.4 L266.7,172.5 L284.4,167.8 L302.8,166.4 L321.1,168.9 L338.6,174.5 L355.1,181.7 L371.2,189.4 L387.3,197.3 L403.1,206.3 L417.8,217.3 L430.2,231.0 L439.4,246.9 L445.9,264.0 L450.5,281.5 L454.5,298.9 L458.3,316.4 L461.1,334.4 L461.5,352.7 L458.3,370.9" fill="none" stroke="#1c1d1a" stroke-width="12" stroke-linecap="round" opacity="0.6399999999999999"/>
    <path d="M445.8,297.7 L449.5,314.2 L452.5,331.0 L453.5,348.3 L451.2,365.6 L445.4,382.0 L436.7,397.0 L426.6,410.8 L416.1,423.9 L405.6,437.0 L394.2,449.9 L381.3,461.5 L366.4,470.4 L349.9,476.0 L332.8,478.7 L315.7,479.3 L298.9,479.4 L282.1,479.3 L265.0,478.4 L247.9,475.5 L231.6,469.5 L216.9,460.1 L204.2,448.3 L193.1,435.4 L182.5,422.3 L172.1,409.0 L162.1,395.1 L153.7,380.0 L148.3,363.4 L146.5,346.1 L147.8,328.9 L150.9,312.1 L154.6,295.7 L158.5,279.3 L163.1,262.8 L169.7,246.8 L179.3,232.2 L191.7,220.0 L206.0,210.3 L221.1,202.3 L236.3,194.9 L251.4,187.7 L267.2,181.0 L283.9,176.2 L301.2,174.7 L318.5,176.8 L335.0,181.9 L350.7,188.7 L365.9,196.0 L381.0,203.3 L396.1,211.5 L410.2,221.6 L422.2,234.1 L431.4,248.9 L437.7,265.1 L442.1,281.6 L445.9,298.0 L449.5,314.4 L452.5,331.3 L453.5,348.6 L451.2,365.8" fill="none" stroke="#1c1d1a" stroke-width="8" stroke-linecap="round" opacity="0.45999999999999996" stroke-dasharray="1 14"/>
  </g>
  <circle cx="265.6" cy="165.0" r="1.1" fill="#1c1d1a" opacity="0.16"/>
  <circle cx="196.0" cy="182.6" r="1.5" fill="#1c1d1a" opacity="0.10"/>
  <circle cx="153.6" cy="247.9" r="1.6" fill="#1c1d1a" opacity="0.16"/>
  <circle cx="412.9" cy="216.7" r="2.1" fill="#1c1d1a" opacity="0.30"/>
  <circle cx="477.6" cy="336.1" r="3.1" fill="#1c1d1a" opacity="0.23"/>
  <circle cx="175.9" cy="205.1" r="2.8" fill="#1c1d1a" opacity="0.19"/>
  <circle cx="124.1" cy="371.1" r="1.6" fill="#1c1d1a" opacity="0.17"/>
  <circle cx="405.9" cy="188.5" r="0.9" fill="#1c1d1a" opacity="0.15"/>
  <circle cx="161.5" cy="254.8" r="3.1" fill="#1c1d1a" opacity="0.06"/>
  <circle cx="169.4" cy="435.3" r="2.1" fill="#1c1d1a" opacity="0.23"/>
  <circle cx="157.9" cy="256.2" r="0.8" fill="#1c1d1a" opacity="0.11"/>
  <circle cx="438.3" cy="218.0" r="1.6" fill="#1c1d1a" opacity="0.12"/>
  <circle cx="422.2" cy="207.7" r="1.4" fill="#1c1d1a" opacity="0.13"/>
  <circle cx="389.1" cy="185.4" r="1.9" fill="#1c1d1a" opacity="0.17"/>
  <circle cx="428.4" cy="416.8" r="0.9" fill="#1c1d1a" opacity="0.06"/>
  <circle cx="416.8" cy="202.0" r="3.3" fill="#1c1d1a" opacity="0.12"/>
  <circle cx="452.9" cy="415.5" r="3.3" fill="#1c1d1a" opacity="0.14"/>
  <circle cx="166.4" cy="212.5" r="1.2" fill="#1c1d1a" opacity="0.23"/>
  <circle cx="452.3" cy="264.3" r="2.5" fill="#1c1d1a" opacity="0.19"/>
  <circle cx="199.2" cy="190.2" r="0.8" fill="#1c1d1a" opacity="0.07"/>
  <circle cx="242.6" cy="159.5" r="1.4" fill="#1c1d1a" opacity="0.25"/>
  <circle cx="202.3" cy="197.0" r="2.7" fill="#1c1d1a" opacity="0.21"/>
  <circle cx="337.0" cy="178.2" r="2.2" fill="#1c1d1a" opacity="0.30"/>
  <circle cx="223.0" cy="187.9" r="1.5" fill="#1c1d1a" opacity="0.19"/>
  <circle cx="217.5" cy="176.8" r="1.7" fill="#1c1d1a" opacity="0.18"/>
  <circle cx="128.4" cy="276.6" r="1.6" fill="#1c1d1a" opacity="0.29"/>
  <circle cx="131.1" cy="364.7" r="0.8" fill="#1c1d1a" opacity="0.15"/>
  <circle cx="153.0" cy="430.9" r="3.2" fill="#1c1d1a" opacity="0.05"/>
  <circle cx="321.9" cy="174.7" r="2.5" fill="#1c1d1a" opacity="0.29"/>
  <circle cx="405.7" cy="216.5" r="3.2" fill="#1c1d1a" opacity="0.14"/>
  <circle cx="166.6" cy="443.0" r="2.7" fill="#1c1d1a" opacity="0.27"/>
  <circle cx="342.7" cy="158.6" r="1.8" fill="#1c1d1a" opacity="0.12"/>
  <circle cx="222.0" cy="489.2" r="2.7" fill="#1c1d1a" opacity="0.21"/>
  <circle cx="277.8" cy="155.0" r="1.4" fill="#1c1d1a" opacity="0.23"/>
  <circle cx="350.0" cy="503.9" r="2.7" fill="#1c1d1a" opacity="0.13"/>
  <circle cx="410.0" cy="450.8" r="3.0" fill="#1c1d1a" opacity="0.07"/>
  <circle cx="175.4" cy="423.2" r="3.4" fill="#1c1d1a" opacity="0.11"/>
  <circle cx="155.7" cy="241.8" r="2.0" fill="#1c1d1a" opacity="0.07"/>
  <circle cx="391.5" cy="191.7" r="2.0" fill="#1c1d1a" opacity="0.17"/>
  <circle cx="160.1" cy="397.9" r="1.2" fill="#1c1d1a" opacity="0.23"/>
  <circle cx="395.1" cy="198.3" r="3.0" fill="#1c1d1a" opacity="0.25"/>
  <circle cx="265.1" cy="491.1" r="3.4" fill="#1c1d1a" opacity="0.11"/>
  <circle cx="447.8" cy="260.7" r="2.4" fill="#1c1d1a" opacity="0.10"/>
  <circle cx="367.4" cy="171.8" r="0.9" fill="#1c1d1a" opacity="0.24"/>
  <circle cx="142.7" cy="332.8" r="2.3" fill="#1c1d1a" opacity="0.09"/>
  <circle cx="195.6" cy="455.1" r="1.7" fill="#1c1d1a" opacity="0.13"/>
  <text x="300" y="392" text-anchor="middle" font-family="Georgia,'Songti SC','Noto Serif SC',serif" font-size="96" fill="#23241f" opacity="0.92">孟</text>
  <g transform="translate(266,602)">
    <rect x="0" y="0" width="68" height="68" rx="4" fill="#9e2b25"/>
    <text x="34" y="47" text-anchor="middle" font-family="'Songti SC','Noto Serif SC',serif" font-size="38" fill="#f3ede0">孟</text>
  </g>
  <text x="300" y="708" text-anchor="middle" font-family="Georgia,serif" font-size="15" letter-spacing="4" fill="#6b6355">墨 像 · INK ARCHIVE</text>
</svg>